# xmcd
#
# Track frame offsets: 
#        150
#        23703
#        41863
#        64210
#        82818
#        107528
#        132020
#        149550
#        165620
#        190615
#
# Disc length: 2995 seconds
#
# Revision: 2
# Processed by: cddbd v1.5.2PL0 Copyright (c) Steve Scherf et al.
# Submitted via: ExactAudioCopy v1.0b3
#
DISCID=7f0bb10a
DTITLE=艾敬 - 我的1997 [CD021]
DYEAR=1993
DGENRE=Pop
TTITLE0=我的1997 
TTITLE1=你的軍裝
TTITLE2=我要回家
TTITLE3=長夜不停的電話
TTITLE4=愛人你住在哪裡
TTITLE5=流浪的燕子
TTITLE6=離家的時候
TTITLE7=請你稍稍溫柔
TTITLE8=那年冬天
TTITLE9=我的1997（原作版）
EXTD=
EXTT0=
EXTT1=
EXTT2=
EXTT3=
EXTT4=
EXTT5=
EXTT6=
EXTT7=
EXTT8=
EXTT9=
PLAYORDER=
